PathFileType	4	(X/Y/Z)	/Users/itak/Documents/Research/Walk-IL/dataset/trc/00372_00011.trc
DataRate	CameraRate	NumFrames	NumMarkers	Units	OrigDataRate	OrigDataStartFrame	OrigNumFrames
100.000000	100.000000	4	56	mm	100.000000	72	581
Frame#	Time	RPSI			LPSI			L3			STRN			T10			C7			CLAV			RBAK			LBAK			LSHO			LUPA			LAEL			LAOL			LWPS			LFRA			LIFD			LHPS			LHTS			RSHO			RUPA			RAEL			RAOL			RWPS			RFRA			RIFD			RHTS			RHPS			RBHD			LFHD			RFHD			LBHD			LHIP			RHIP			RASI			LASI			LKNE			LTHI			LANK			LTIP			LTOE			LMT1			LMT5			LHEE			RKNE			RTHI			RANK			RTIP			RTOE			RMT1			RMT5			RHEE			LWTS			RWTS			*53			*54			*55			
		X1	Y1	Z1	X2	Y2	Z2	X3	Y3	Z3	X4	Y4	Z4	X5	Y5	Z5	X6	Y6	Z6	X7	Y7	Z7	X8	Y8	Z8	X9	Y9	Z9	X10	Y10	Z10	X11	Y11	Z11	X12	Y12	Z12	X13	Y13	Z13	X14	Y14	Z14	X15	Y15	Z15	X16	Y16	Z16	X17	Y17	Z17	X18	Y18	Z18	X19	Y19	Z19	X20	Y20	Z20	X21	Y21	Z21	X22	Y22	Z22	X23	Y23	Z23	X24	Y24	Z24	X25	Y25	Z25	X26	Y26	Z26	X27	Y27	Z27	X28	Y28	Z28	X29	Y29	Z29	X30	Y30	Z30	X31	Y31	Z31	X32	Y32	Z32	X33	Y33	Z33	X34	Y34	Z34	X35	Y35	Z35	X36	Y36	Z36	X37	Y37	Z37	X38	Y38	Z38	X39	Y39	Z39	X40	Y40	Z40	X41	Y41	Z41	X42	Y42	Z42	X43	Y43	Z43	X44	Y44	Z44	X45	Y45	Z45	X46	Y46	Z46	X47	Y47	Z47	X48	Y48	Z48	X49	Y49	Z49	X50	Y50	Z50	X51	Y51	Z51	X52	Y52	Z52	X53	Y53	Z53	X54	Y54	Z54	X55	Y55	Z55	X56	Y56	Z56	

73	0.72	-1288.721801757812	985.9285888671875	-51.27985763549805	-1282.014526367188	984.0805053710938	-179.6365051269531	-1285.207763671875	1040.248168945312	-113.3058013916016	-1063.6435546875	1223.379638671875	-115.3842391967773	-1296.244140625	1160.2880859375	-129.7630767822266	-1252.323852539062	1407.9970703125	-151.1754455566406	-1101.327270507812	1349.008666992188	-126.3080825805664	-1306.667358398438	1271.652465820312	-82.87329864501953	-1251.954223632812	1367.191772460938	-252.9813995361328	-1159.561401367188	1383.879638671875	-299.5372009277344	-1170.357177734375	1261.782958984375	-364.9937438964844	-1161.014770507812	1057.656616210938	-371.1275634765625	-1232.431518554688	1047.975463867188	-326.6174926757812	-1106.71826171875	803.7152709960938	-363.52587890625	-1147.168823242188	952.3958740234375	-372.8026733398438	-1073.017211914062	655.1367797851562	-282.615234375	-1112.269653320312	733.7418212890625	-354.7666931152344	-1066.220092773438	737.5208740234375	-310.1541748046875	-1212.40087890625	1402.60693359375	18.91455459594727	-1227.519287109375	1338.96484375	82.19359588623047	-1220.711303710938	1073.738647460938	130.2685852050781	-1259.873413085938	1064.353881835938	44.48524856567383	-1140.4833984375	830.9169921875	150.1573181152344	-1194.568603515625	1005.977844238281	140.4740295410156	-1094.3193359375	673.5205078125	87.60906982421875	-1081.394165039062	743.5048828125	94.97802734375	-1126.032958984375	746.759521484375	148.3064117431641	-1237.031616210938	1607.939086914062	-69.18647003173828	-1054.228393554688	1635.219482421875	-167.3907012939453	-1075.855102539062	1633.728149414062	-68.66390228271484	-1232.208374023438	1602.156372070312	-213.9050445556641	-1193.897827148438	923.3099365234375	-278.7806091308594	-1215.89453125	931.8076171875	62.24064636230469	-1108.008666992188	959.257568359375	23.36178970336914	-1073.401611328125	950.3721923828125	-213.7874298095703	-1169.293579101562	467.7108154296875	-262.66015625	-1158.883544921875	605.7857666015625	-271.5717163085938	-1254.352294921875	46.95888519287109	-252.0903778076172	-1214.086181640625	252.0735931396484	-270.6105651855469	-1046.882934570312	46.30607986450195	-196.7429504394531	-1112.514282226562	37.41785430908203	-152.5199127197266	-1129.318969726562	43.24432373046875	-267.3140869140625	-1285.102172851562	43.88966751098633	-183.0353088378906	-1187.825927734375	465.0164184570312	60.38127517700195	-1131.531372070312	710.9146728515625	54.05230712890625	-1247.06884765625	53.8115119934082	46.20057678222656	-1181.369750976562	347.2801513671875	50.83683013916016	-1054.792236328125	48.35470581054688	-6.622258186340332	-1110.918579101562	41.78440093994141	-47.2877197265625	-1146.061767578125	41.84521865844727	65.63014221191406	-1297.516845703125	53.58744430541992	-1.566957831382751	-1078.608764648438	817.8873291015625	-301.9422607421875	-1111.015014648438	844.6431884765625	80.49783325195312	nan	nan	nan	nan	nan	nan	nan	nan	nan	
74	0.73	-1288.448852539062	985.9913940429688	-51.27988052368164	-1281.749267578125	984.125244140625	-179.6406097412109	-1284.867797851562	1040.270141601562	-113.3001708984375	-1063.513305664062	1223.2822265625	-115.395393371582	-1295.947387695312	1160.345336914062	-129.7411193847656	-1251.949584960938	1408.020141601562	-151.2016296386719	-1101.10986328125	1348.8515625	-126.354118347168	-1306.321411132812	1271.7333984375	-82.84801483154297	-1251.587768554688	1367.210083007812	-253.0144500732422	-1159.192626953125	1383.859252929688	-299.589111328125	-1169.91748046875	1261.710205078125	-364.9567565917969	-1160.700805664062	1057.554077148438	-370.8809204101562	-1232.150146484375	1047.916137695312	-326.3905334472656	-1106.242919921875	803.6497192382812	-362.8352355957031	-1146.76806640625	952.2916870117188	-372.3760375976562	-1072.5615234375	655.2216186523438	-281.760498046875	-1111.732299804688	733.678955078125	-353.9508972167969	-1065.735229492188	737.5995483398438	-309.3054809570312	-1211.976196289062	1402.67138671875	18.89134216308594	-1227.063232421875	1339.060180664062	82.19071197509766	-1220.324584960938	1073.86083984375	130.2927703857422	-1259.515747070312	1064.445190429688	44.57760620117188	-1140.056640625	831.0462646484375	150.1633453369141	-1194.28857421875	1006.113342285156	140.5778350830078	-1093.9921875	673.5975952148438	87.79169464111328	-1080.953369140625	743.6190185546875	95.08108520507812	-1125.677001953125	746.8729858398438	148.5274658203125	-1236.572021484375	1607.964965820312	-69.11181640625	-1053.76123046875	1635.178955078125	-167.4539031982422	-1075.409301757812	1633.722290039062	-68.75337982177734	-1231.800659179688	1602.08984375	-213.9423522949219	-1193.787841796875	923.3367309570312	-278.8594360351562	-1215.650390625	931.8405151367188	62.27438735961914	-1107.817260742188	959.2247924804688	23.37272262573242	-1073.088256835938	950.315185546875	-213.7602844238281	-1169.210815429688	467.6962280273438	-262.627685546875	-1158.740600585938	605.7495727539062	-271.5351867675781	-1254.328491210938	46.96004867553711	-252.0728302001953	-1214.034790039062	252.0760498046875	-270.5967102050781	-1046.876220703125	46.30614471435547	-196.7279510498047	-1112.50439453125	37.40439224243164	-152.5119781494141	-1129.311889648438	43.24723815917969	-267.2993774414062	-1285.102661132812	43.89524459838867	-183.0323791503906	-1187.822143554688	465.0134582519531	60.37362289428711	-1131.171508789062	710.673828125	53.66588592529297	-1247.072143554688	53.81149291992188	46.19875717163086	-1181.388305664062	347.2884521484375	50.84806823730469	-1054.796264648438	48.35177993774414	-6.625933170318604	-1110.91943359375	41.78285598754883	-47.28836822509766	-1146.063232421875	41.84295272827148	65.63225555419922	-1297.52197265625	53.58951187133789	-1.566680550575256	-1078.44091796875	817.6952514648438	-301.1111145019531	-1110.70654296875	844.708984375	80.48014831542969	nan	nan	nan	nan	nan	nan	nan	nan	nan	
75	0.74	-1288.155883789062	986.0487060546875	-51.26838684082031	-1281.474243164062	984.1652221679688	-179.6427001953125	-1284.509033203125	1040.296264648438	-113.2888565063477	-1063.39501953125	1223.184448242188	-115.4008102416992	-1295.61083984375	1160.400024414062	-129.7227935791016	-1251.581176757812	1408.04296875	-151.2324829101562	-1100.887451171875	1348.689697265625	-126.3971405029297	-1305.971557617188	1271.810302734375	-82.82614898681641	-1251.222290039062	1367.23193359375	-253.0496520996094	-1158.81103515625	1383.848510742188	-299.6394348144531	-1169.471069335938	1261.655883789062	-364.9293823242188	-1160.372802734375	1057.47607421875	-370.6603088378906	-1231.847900390625	1047.873046875	-326.1913452148438	-1105.746704101562	803.6001586914062	-362.1948547363281	-1146.370483398438	952.2062377929688	-371.9941711425781	-1072.07373046875	655.3184814453125	-280.96630859375	-1111.174682617188	733.6282348632812	-353.1892700195312	-1065.21826171875	737.6902465820312	-308.517333984375	-1211.563354492188	1402.730712890625	18.85941505432129	-1226.606079101562	1339.162475585938	82.17579650878906	-1219.950927734375	1073.987915039062	130.3305053710938	-1259.174438476562	1064.540893554688	44.67132186889648	-1139.653442382812	831.1824340820312	150.1873321533203	-1194.01123046875	1006.252624511719	140.6929779052734	-1093.672119140625	673.6583251953125	87.9962158203125	-1080.470336914062	743.7471923828125	95.20258331298828	-1125.30810546875	746.9774169921875	148.7254333496094	-1236.117553710938	1607.98974609375	-69.01508331298828	-1053.28173828125	1635.137329101562	-167.5125274658203	-1074.958251953125	1633.717407226562	-68.84393310546875	-1231.37255859375	1602.027954101562	-213.9786529541016	-1193.65478515625	923.3594360351562	-278.9326782226562	-1215.388427734375	931.8676147460938	62.32017135620117	-1107.6220703125	959.186767578125	23.39955139160156	-1072.75927734375	950.2462158203125	-213.7273254394531	-1169.143188476562	467.6798095703125	-262.5955810546875	-1158.614135742188	605.7158203125	-271.5065612792969	-1254.305541992188	46.96103286743164	-252.0561065673828	-1213.99169921875	252.0786743164062	-270.5845642089844	-1046.87158203125	46.30625915527344	-196.7155303955078	-1112.495849609375	37.3934326171875	-152.5059204101562	-1129.304443359375	43.24929428100586	-267.2853698730469	-1285.102783203125	43.89968109130859	-183.0297393798828	-1187.803588867188	465.0143127441406	60.35286712646484	-1130.822387695312	710.4376831054688	53.28861618041992	-1247.075927734375	53.8118896484375	46.19572067260742	-1181.406616210938	347.2969970703125	50.86236953735352	-1054.800415039062	48.34855651855469	-6.629496097564697	-1110.9189453125	41.78100967407227	-47.28873062133789	-1146.065185546875	41.84045791625977	65.63401794433594	-1297.527587890625	53.59303283691406	-1.566745758056641	-1078.166381835938	817.5728759765625	-300.3656005859375	-1110.390014648438	844.78076171875	80.46515655517578	nan	nan	nan	nan	nan	nan	nan	nan	nan	
76	0.75	-1287.84912109375	986.0989990234375	-51.24678421020508	-1281.18798828125	984.1998901367188	-179.6416625976562	-1284.13720703125	1040.325073242188	-113.2721710205078	-1063.278930664062	1223.0888671875	-115.4027786254883	-1295.237915039062	1160.449951171875	-129.7084197998047	-1251.219116210938	1408.063720703125	-151.268798828125	-1100.657470703125	1348.529174804688	-126.4376220703125	-1305.617919921875	1271.880126953125	-82.80907440185547	-1250.860473632812	1367.25439453125	-253.0860290527344	-1158.419555664062	1383.843994140625	-299.6880187988281	-1169.029663085938	1261.61572265625	-364.9128112792969	-1160.024169921875	1057.419067382812	-370.4645385742188	-1231.524780273438	1047.841796875	-326.0245056152344	-1105.224487304688	803.5640869140625	-361.6050109863281	-1145.971435546875	952.1361083984375	-371.6572265625	-1071.55908203125	655.4190673828125	-280.2281188964844	-1110.59521484375	733.58837890625	-352.4854125976562	-1064.67431640625	737.78466796875	-307.7851867675781	-1211.165283203125	1402.783203125	18.81929779052734	-1226.152709960938	1339.265747070312	82.1524658203125	-1219.587524414062	1074.115234375	130.3857116699219	-1258.849975585938	1064.637084960938	44.76543807983398	-1139.268432617188	831.320068359375	150.2280120849609	-1193.72216796875	1006.392028808594	140.8157958984375	-1093.349731445312	673.707763671875	88.20664978027344	-1079.95947265625	743.884033203125	95.33034515380859	-1124.92626953125	747.0723266601562	148.8894958496094	-1235.667236328125	1608.01123046875	-68.90823364257812	-1052.794311523438	1635.092041015625	-167.5667572021484	-1074.497314453125	1633.711547851562	-68.93164825439453	-1230.924438476562	1601.97705078125	-214.0103454589844	-1193.499389648438	923.3768920898438	-278.998046875	-1215.113159179688	931.8869018554688	62.37624740600586	-1107.422241210938	959.1422119140625	23.44371795654297	-1072.417236328125	950.1637573242188	-213.6875762939453	-1169.088134765625	467.6615295410156	-262.5635070800781	-1158.501708984375	605.68408203125	-271.4849853515625	-1254.284301757812	46.96210479736328	-252.0405578613281	-1213.955932617188	252.0814514160156	-270.573974609375	-1046.868896484375	46.30613708496094	-196.7055816650391	-1112.48876953125	37.38504791259766	-152.5017700195312	-1129.296630859375	43.25027847290039	-267.2720947265625	-1285.10302734375	43.90308380126953	-183.0270538330078	-1187.757934570312	465.0170288085938	60.31233596801758	-1130.502319335938	710.2200317382812	52.94531631469727	-1247.079833984375	53.81301498413086	46.19129180908203	-1181.41845703125	347.3038330078125	50.87890243530273	-1054.803955078125	48.34479141235352	-6.633005142211914	-1110.9169921875	41.7783317565918	-47.28940200805664	-1146.06689453125	41.83803176879883	65.63488006591797	-1297.532836914062	53.59846496582031	-1.567646861076355	-1077.796997070312	817.5077514648438	-299.7018737792969	-1110.063842773438	844.8569946289062	80.45456695556641	nan	nan	nan	nan	nan	nan	nan	nan	nan	
